<?xml version="1.0" encoding="utf-8"?>
<!-- Generator: Adobe Illustrator 16.0.0, SVG Export Plug-In . SVG Version: 6.00 Build 0)  -->
<!DOCTYPE svg PUBLIC "-//W3C//DTD SVG 1.1//EN" "http://www.w3.org/Graphics/SVG/1.1/DTD/svg11.dtd">
<svg version="1.1" id="Layer_1" xmlns="http://www.w3.org/2000/svg" xmlns:xlink="http://www.w3.org/1999/xlink" x="0px" y="0px"
	 width="100px" height="100px" viewBox="0 0 100 100" enable-background="new 0 0 100 100" xml:space="preserve">
<path fill="#8C8C8C" d="M82.354,42.068H33.41V27.02c0-9.187,7.475-16.66,16.663-16.66c7.425,0,13.816,4.877,15.925,11.743h10.137
	C73.807,9.667,62.912,0.5,50.073,0.5C35.448,0.5,23.55,12.396,23.55,27.02v15.048h-5.905c-4.867,0-8.812,3.945-8.812,8.812v39.808
	c0,4.869,3.945,8.813,8.812,8.813h64.709c4.867,0,8.814-3.943,8.814-8.813V50.88C91.168,46.013,87.221,42.068,82.354,42.068z
	 M58.283,85.82H41.715l2.979-13.128c-2.415-1.681-4-4.473-4-7.64c0-5.139,4.167-9.304,9.306-9.304c5.141,0,9.305,4.165,9.305,9.304
	c0,3.167-1.584,5.959-4,7.64L58.283,85.82z"/>
</svg>
