<?xml version="1.0" ?><svg width="512px" height="512px" viewBox="0 0 512 512" id="Layer_1" style="enable-background:new 0 0 512 512;" version="1.1" xml:space="preserve" xmlns="http://www.w3.org/2000/svg" xmlns:xlink="http://www.w3.org/1999/xlink"><style type="text/css">
	.st0{fill:#E6E6E6;}
	.st1{fill:#69C9C9;}
	.st2{fill:#4D5152;}
</style><path class="st0" d="M220.5,494.1v-96.5c0-19.6,15.9-35.5,35.5-35.5s35.5,15.9,35.5,35.5v86.5H256v10H220.5z"/><polygon class="st1" points="113.3,167.6 136.2,144.7 143.3,151.5 256,36.4 455.4,239.8 286,239.8 286,249.8 226,249.8 226,239.8   56.6,239.8 113.3,182 "/><g><rect class="st2" height="20" width="20" x="246" y="239.8"/><path class="st2" d="M503,259.8L256,7.9l-87,88.9V58.1H93.3v115.7L9,259.8h49.9v244.3h161.6V397.7c0-19.6,15.9-35.5,35.5-35.5   s35.5,15.9,35.5,35.5v86.5H256v20h197.1V259.8H503z M433.1,484.1H311.5v-86.5c0-30.6-24.9-55.5-55.5-55.5   c-30.6,0-55.5,24.9-55.5,55.5v86.5H78.9V259.8H226v-20H56.6l56.7-57.8V78.1H149v39l-20,20.4l14.3,14L256,36.4l199.4,203.4H286v20   h147.1V484.1z"/><path class="st2" d="M334.1,300.9V382H413v-81.1H334.1z M392.8,362h-38.7v-41.1h38.7V362z"/><path class="st2" d="M99,300.9V382h78.9v-81.1H99z M157.9,362h-38.7v-41.1h38.7V362z"/></g></svg>