<?xml version="1.0" encoding="utf-8"?>
<!-- Generator: Adobe Illustrator 16.0.0, SVG Export Plug-In . SVG Version: 6.00 Build 0)  -->
<!DOCTYPE svg PUBLIC "-//W3C//DTD SVG 1.1//EN" "http://www.w3.org/Graphics/SVG/1.1/DTD/svg11.dtd">
<svg version="1.1" id="Layer_1" xmlns="http://www.w3.org/2000/svg" xmlns:xlink="http://www.w3.org/1999/xlink" x="0px" y="0px"
	 width="512px" height="512px" viewBox="0 0 512 512" enable-background="new 0 0 512 512" xml:space="preserve">
<g>
	<path d="M486.27,168.037L292.929,17.047C290.034,14.735,274.531,3.104,256,3.104c-18.887,0-35.599,12.327-37.442,13.732l-0.1,0.077
		l-0.083,0.063L25.7,168.061c-4.746,3.722-7.467,9.315-7.467,15.345v270.165c0,30.224,24.817,54.812,55.322,54.812h364.89
		c30.505,0,55.323-24.588,55.323-54.812V183.406C493.768,177.36,491.034,171.758,486.27,168.037z M256,42.104
		c3.984,0,10.151,3.521,12.601,5.426c0.08,0.066,0.105,0.085,0.16,0.127l0.074,0.058l185.933,145.205v260.652
		c0,8.719-7.322,15.812-16.323,15.812H73.555c-9,0-16.322-7.093-16.322-15.812V192.896L242.208,47.849
		C245.391,45.521,251.942,42.104,256,42.104z"/>
	<path d="M317.649,230.103H194.352c-18.102,0-32.829,14.641-32.829,32.637v227.58v3h3h33h3v-3V269.104h110.956V490.32v3h3h33h3v-3
		V262.74C350.479,244.744,335.751,230.103,317.649,230.103z"/>
</g>
</svg>
